<svg width="20" height="20" viewBox="0 0 20 20" fill="none" xmlns="http://www.w3.org/2000/svg">
<path d="M6.625 1H2.125C1.50368 1 1 1.50368 1 2.125V10C1 10.6213 1.50368 11.125 2.125 11.125H6.625C7.24632 11.125 7.75 10.6213 7.75 10V2.125C7.75 1.50368 7.24632 1 6.625 1Z" stroke="black" stroke-width="1.25" stroke-miterlimit="10"/>
<path d="M17.875 14.5H2.125C1.50368 14.5 1 15.0037 1 15.625V17.875C1 18.4963 1.50368 19 2.125 19H17.875C18.4963 19 19 18.4963 19 17.875V15.625C19 15.0037 18.4963 14.5 17.875 14.5Z" stroke="black" stroke-width="1.25" stroke-miterlimit="10"/>
<path d="M17.875 1H12.25C11.6287 1 11.125 1.50368 11.125 2.125V10C11.125 10.6213 11.6287 11.125 12.25 11.125H17.875C18.4963 11.125 19 10.6213 19 10V2.125C19 1.50368 18.4963 1 17.875 1Z" stroke="black" stroke-width="1.25" stroke-miterlimit="10"/>
</svg>
