<svg width="15" height="20" viewBox="0 0 15 20" fill="none" xmlns="http://www.w3.org/2000/svg">
<path d="M8.51735 18.5872C8.0074 19.2954 6.9926 19.2954 6.48265 18.5872C5.39205 17.0727 3.91321 14.9146 2.70969 12.7842C2.10778 11.7187 1.58122 10.6714 1.20668 9.72268C0.827593 8.76244 0.625 7.95389 0.625 7.35C0.625 6.46863 0.802125 5.59559 1.14659 4.7806C1.49107 3.96559 1.99633 3.22421 2.63415 2.59915C3.272 1.97406 4.02992 1.47756 4.86495 1.13859C5.7 0.79962 6.59543 0.625 7.5 0.625C8.40457 0.625 9.3 0.79962 10.135 1.13859C10.9701 1.47756 11.728 1.97406 12.3658 2.59915C13.0037 3.22421 13.5089 3.96559 13.8534 4.7806C14.1979 5.59559 14.375 6.46863 14.375 7.35C14.375 7.95389 14.1724 8.76244 13.7933 9.72268C13.4188 10.6714 12.8922 11.7187 12.2903 12.7842C11.0868 14.9146 9.60795 17.0727 8.51735 18.5872ZM7.5 10.075C8.23005 10.075 8.93268 9.79091 9.45268 9.28131C9.97311 8.77129 10.2679 8.07683 10.2679 7.35C10.2679 6.62316 9.97311 5.92871 9.45268 5.41869C8.93268 4.90909 8.23005 4.625 7.5 4.625C6.76995 4.625 6.06732 4.90909 5.54732 5.41869C5.02689 5.92871 4.73214 6.62316 4.73214 7.35C4.73214 8.07684 5.02689 8.77129 5.54732 9.28131C6.06732 9.79091 6.76995 10.075 7.5 10.075Z" stroke="black" stroke-width="1.25"/>
</svg>
