<svg width="15" height="20" viewBox="0 0 15 20" fill="none" xmlns="http://www.w3.org/2000/svg">
<path d="M9.02455 18.9524C8.26517 20.007 6.73483 20.007 5.97545 18.9524C3.7829 15.9075 0 10.2359 0 7.35C-1.46764e-08 6.38478 0.193993 5.42902 0.570904 4.53728C0.947814 3.64553 1.50026 2.83528 2.1967 2.15277C2.89314 1.47025 3.71993 0.928858 4.62987 0.559485C5.53982 0.190113 6.51509 0 7.5 0C8.48491 0 9.46018 0.190113 10.3701 0.559485C11.2801 0.928858 12.1069 1.47025 12.8033 2.15277C13.4997 2.83528 14.0522 3.64553 14.4291 4.53728C14.806 5.42902 15 6.38478 15 7.35C15 10.2359 11.2171 15.9075 9.02455 18.9524ZM7.5 9.45C8.06832 9.45 8.61336 9.22875 9.01523 8.83492C9.41709 8.4411 9.64286 7.90695 9.64286 7.35C9.64286 6.79305 9.41709 6.2589 9.01523 5.86508C8.61336 5.47125 8.06832 5.25 7.5 5.25C6.93168 5.25 6.38663 5.47125 5.98477 5.86508C5.58291 6.2589 5.35714 6.79305 5.35714 7.35C5.35714 7.90695 5.58291 8.4411 5.98477 8.83492C6.38663 9.22875 6.93168 9.45 7.5 9.45Z" fill="#8A2432"/>
</svg>
