<svg width="16" height="18" viewBox="0 0 16 18" fill="none" xmlns="http://www.w3.org/2000/svg">
<g filter="url(#filter0_d_564_372)">
<path d="M8.80798 0.95914C8.80818 0.429629 8.37026 0.000210997 7.82978 7.08269e-08C7.2893 -0.000201268 6.85099 0.428881 6.8508 0.958382L6.84766 8.63174C6.84747 9.16126 7.28549 9.59069 7.82596 9.59088C8.36634 9.59107 8.80465 9.16203 8.80485 8.63251L8.80798 0.95914Z" fill="white"/>
<path d="M0 9.57397C0 7.45598 0.876242 5.53847 2.29292 4.15046L3.67687 5.50635C2.61436 6.54735 1.95718 7.9855 1.95718 9.57397C1.95718 12.751 4.58597 15.3265 7.82874 15.3265C11.0715 15.3265 13.7003 12.751 13.7003 9.57397C13.7003 7.98541 13.0431 6.54729 11.9805 5.50628L13.3644 4.15039C14.7812 5.5384 15.6575 7.45589 15.6575 9.57397C15.6575 13.81 12.1525 17.244 7.82874 17.244C3.50504 17.244 0 13.81 0 9.57397Z" fill="white"/>
</g>
<defs>
<filter id="filter0_d_564_372" x="-4" y="0" width="23.6582" height="25.2441" filterUnits="userSpaceOnUse" color-interpolation-filters="sRGB">
<feFlood flood-opacity="0" result="BackgroundImageFix"/>
<feColorMatrix in="SourceAlpha" type="matrix" values="0 0 0 0 0 0 0 0 0 0 0 0 0 0 0 0 0 0 127 0" result="hardAlpha"/>
<feOffset dy="4"/>
<feGaussianBlur stdDeviation="2"/>
<feComposite in2="hardAlpha" operator="out"/>
<feColorMatrix type="matrix" values="0 0 0 0 0 0 0 0 0 0 0 0 0 0 0 0 0 0 0.25 0"/>
<feBlend mode="normal" in2="BackgroundImageFix" result="effect1_dropShadow_564_372"/>
<feBlend mode="normal" in="SourceGraphic" in2="effect1_dropShadow_564_372" result="shape"/>
</filter>
</defs>
</svg>
