<svg width="15" height="19" viewBox="0 0 15 19" fill="none" xmlns="http://www.w3.org/2000/svg">
<path d="M1.9365 10.4786L2.00016 10.3341V10.1762V7.23014C2.00016 3.6564 4.3933 0.908184 7.23839 0.756573C8.73304 0.680426 10.1588 1.26832 11.2649 2.45868L11.265 2.45876C12.3768 3.65492 13.0011 5.28103 13.0011 7.05103V10.1762V10.3341L13.0647 10.4786L14.1657 12.9781C14.2961 13.2953 14.2711 13.6417 14.1194 13.912C13.9687 14.1801 13.7444 14.2927 13.5419 14.2927H1.45934C1.25737 14.2927 1.03277 14.1801 0.881921 13.9115C0.728386 13.6381 0.706192 13.2921 0.829386 12.9916L1.9365 10.4786ZM7.50064 17.5833C6.95635 17.5833 6.42188 17.2675 6.0898 16.7329H8.91129C8.57916 17.2676 8.04481 17.5833 7.50064 17.5833Z" stroke="black" stroke-width="1.5"/>
</svg>
