<svg width="128" height="128" viewBox="0 0 128 128" fill="none" xmlns="http://www.w3.org/2000/svg">
<g clip-path="url(#clip0_567_369)">
<path fill-rule="evenodd" clip-rule="evenodd" d="M85.3346 9.33333V16H113.335C114.396 16 115.413 16.4214 116.163 17.1716C116.913 17.9217 117.335 18.9391 117.335 20C117.335 21.0609 116.913 22.0783 116.163 22.8284C115.413 23.5786 114.396 24 113.335 24H14.668C13.6071 24 12.5897 23.5786 11.8395 22.8284C11.0894 22.0783 10.668 21.0609 10.668 20C10.668 18.9391 11.0894 17.9217 11.8395 17.1716C12.5897 16.4214 13.6071 16 14.668 16H42.668V9.33333C42.668 4.18133 46.8493 0 52.0013 0H76.0013C81.1533 0 85.3346 4.18133 85.3346 9.33333ZM50.668 9.33333C50.668 8.97971 50.8084 8.64057 51.0585 8.39052C51.3085 8.14048 51.6477 8 52.0013 8H76.0013C76.3549 8 76.6941 8.14048 76.9441 8.39052C77.1942 8.64057 77.3346 8.97971 77.3346 9.33333V16H50.668V9.33333Z" fill="black"/>
<path d="M26.6492 32.9494C26.6036 32.4227 26.454 31.9104 26.2092 31.4419C25.9644 30.9735 25.6292 30.5581 25.2229 30.22C24.8167 29.8819 24.3474 29.6276 23.8423 29.4719C23.3372 29.3162 22.8062 29.2622 22.28 29.3129C21.7539 29.3637 21.243 29.5182 20.777 29.7675C20.3109 30.0169 19.8989 30.3562 19.5648 30.7657C19.2306 31.1753 18.9809 31.647 18.8302 32.1536C18.6794 32.6603 18.6306 33.1917 18.6865 33.7174L26.2171 111.573C26.4424 113.881 27.5185 116.022 29.236 117.58C30.9534 119.138 33.1892 120 35.5078 120H92.4891C94.8086 120 97.0451 119.137 98.7627 117.578C100.48 116.019 101.556 113.877 101.78 111.568L109.316 33.7174C109.418 32.6607 109.096 31.6069 108.42 30.7878C107.745 29.9686 106.772 29.4512 105.716 29.3494C104.659 29.2475 103.605 29.5696 102.786 30.2447C101.967 30.9198 101.45 31.8927 101.348 32.9494L93.8172 110.795C93.7853 111.125 93.6316 111.431 93.3861 111.654C93.1405 111.877 92.8208 112 92.4891 112H35.5078C35.1762 112 34.8564 111.877 34.6109 111.654C34.3653 111.431 34.2117 111.125 34.1798 110.795L26.6492 32.9494Z" fill="black"/>
<path d="M49.1004 40.0054C49.6251 39.9744 50.1507 40.047 50.6472 40.2192C51.1437 40.3914 51.6015 40.6598 51.9943 41.009C52.387 41.3582 52.7071 41.7813 52.9363 42.2543C53.1654 42.7273 53.2991 43.2407 53.3298 43.7654L55.9964 89.0987C56.0587 90.1589 55.6972 91.2004 54.9916 91.994C54.2859 92.7877 53.2939 93.2685 52.2338 93.3307C51.1736 93.393 50.1321 93.0315 49.3385 92.3259C48.5448 91.6202 48.064 90.6282 48.0018 89.5681L45.3351 44.2347C45.3041 43.7101 45.3767 43.1845 45.5489 42.688C45.7211 42.1914 45.9895 41.7337 46.3387 41.3409C46.6879 40.9481 47.111 40.628 47.584 40.3989C48.057 40.1697 48.5704 40.036 49.0951 40.0054H49.1004ZM82.6631 44.2347C82.7253 43.1746 82.3639 42.1331 81.6582 41.3395C80.9526 40.5458 79.9606 40.065 78.9004 40.0027C77.8403 39.9405 76.7988 40.302 76.0052 41.0076C75.2115 41.7132 74.7307 42.7052 74.6684 43.7654L72.0018 89.0987C71.9395 90.1582 72.3007 91.199 73.0058 91.9921C73.711 92.7853 74.7023 93.2658 75.7618 93.3281C76.8212 93.3903 77.862 93.0291 78.6552 92.324C79.4483 91.6189 79.9289 90.6275 79.9911 89.5681L82.6631 44.2347Z" fill="black"/>
</g>
<defs>
<clipPath id="clip0_567_369">
<rect width="128" height="128" fill="white"/>
</clipPath>
</defs>
</svg>
