<svg width="20" height="20" viewBox="0 0 20 20" fill="none" xmlns="http://www.w3.org/2000/svg">
<path d="M9.88112 1.38842C9.89424 1.34803 9.91179 1.3319 9.92475 1.32306C9.9417 1.31151 9.96783 1.30205 10 1.30205C10.0322 1.30205 10.0583 1.31151 10.0752 1.32306C10.0882 1.3319 10.1058 1.34803 10.1189 1.38842L11.9314 6.96669C12.1154 7.53323 12.6434 7.9168 13.2391 7.9168H19.1044C19.1469 7.9168 19.1677 7.9285 19.1801 7.9381C19.1963 7.95064 19.2134 7.97257 19.2233 8.00317C19.2332 8.03377 19.2323 8.06154 19.2266 8.08122C19.2222 8.09629 19.2123 8.11796 19.1779 8.14292L14.4327 11.5905C13.9508 11.9406 13.7492 12.5612 13.9332 13.1278L15.7457 18.7061C15.7588 18.7464 15.7541 18.7698 15.7488 18.7846C15.7419 18.8039 15.7263 18.8269 15.7003 18.8458C15.6743 18.8647 15.6476 18.8724 15.6271 18.873C15.6114 18.8735 15.5877 18.8708 15.5534 18.8458L10.8082 15.3982C10.3263 15.0481 9.67371 15.0481 9.1918 15.3982L4.44664 18.8458C4.41227 18.8708 4.3886 18.8735 4.37291 18.873C4.35242 18.8724 4.32572 18.8647 4.29969 18.8458C4.27366 18.8269 4.25808 18.8039 4.25116 18.7846C4.24587 18.7698 4.24115 18.7465 4.25428 18.7061L6.06677 13.1278C6.25085 12.5612 6.04919 11.9406 5.56727 11.5905L0.822112 8.14292C0.787748 8.11796 0.777831 8.09629 0.773433 8.08122C0.767686 8.06154 0.766761 8.03377 0.776703 8.00317C0.786645 7.97257 0.80372 7.95064 0.819938 7.9381C0.832348 7.9285 0.853108 7.9168 0.895585 7.9168H6.76093C7.35661 7.9168 7.88455 7.53323 8.06863 6.96669L9.88112 1.38842Z" stroke="black" stroke-width="1.25"/>
</svg>
